<svg width="1086" height="1448" viewBox="0 0 1086 1448" fill="none" xmlns="http://www.w3.org/2000/svg">
  <rect width="1086" height="1448" fill="#F7FAFC"/>
  <rect x="54" y="52" width="978" height="1344" rx="38" fill="white" stroke="#D8E4F1" stroke-width="4"/>
  <path d="M54 90C54 69.0132 71.0132 52 92 52H994C1014.99 52 1032 69.0132 1032 90V392H54V90Z" fill="#092243"/>
  <circle cx="892" cy="190" r="72" fill="#1D5EA8"/>
  <circle cx="936" cy="232" r="36" fill="#D9902F"/>
  <path d="M746 84H994C1014.99 84 1032 101.013 1032 122V338C950 307 897 251 855 195C819 147 785 111 746 84Z" fill="#123F73" opacity="0.9"/>
  <text x="98" y="138" fill="#D9EBFF" font-family="Arial, Helvetica, sans-serif" font-size="24" font-weight="700" letter-spacing="5">NEPALI YOUTH OF AMERICA</text>
  <text x="98" y="202" fill="white" font-family="Arial, Helvetica, sans-serif" font-size="66" font-weight="800">NYA Introduction</text>
  <text x="98" y="278" fill="white" font-family="Arial, Helvetica, sans-serif" font-size="66" font-weight="800">/ Breakdown</text>
  <text x="100" y="340" fill="#D9EBFF" font-family="Arial, Helvetica, sans-serif" font-size="27" font-weight="500">A virtual information session for students and parents</text>

  <rect x="98" y="448" width="890" height="162" rx="22" fill="#EEF6FF" stroke="#C9DEF6" stroke-width="3"/>
  <text x="132" y="510" fill="#092243" font-family="Arial, Helvetica, sans-serif" font-size="28" font-weight="700">Date &amp; Time</text>
  <text x="132" y="570" fill="#113F7A" font-family="Arial, Helvetica, sans-serif" font-size="42" font-weight="800">Saturday, August 1, 2026</text>
  <text x="680" y="570" fill="#113F7A" font-family="Arial, Helvetica, sans-serif" font-size="42" font-weight="800">7:00 PM ET</text>

  <rect x="98" y="662" width="890" height="236" rx="22" fill="#092243"/>
  <text x="132" y="724" fill="#D9EBFF" font-family="Arial, Helvetica, sans-serif" font-size="25" font-weight="700" letter-spacing="3">JOIN ZOOM MEETING</text>
  <text x="132" y="790" fill="white" font-family="Arial, Helvetica, sans-serif" font-size="35" font-weight="800">https://us05web.zoom.us/j/7779407788</text>
  <text x="132" y="834" fill="#D9EBFF" font-family="Arial, Helvetica, sans-serif" font-size="18" font-weight="600">?pwd=7ljDSKeMLW8ZyZ1bVD5SqqFA3i3a6E.1&amp;omn=88302413887</text>

  <rect x="98" y="946" width="418" height="180" rx="20" fill="#F7F3EC" stroke="#E7D9C4" stroke-width="3"/>
  <text x="132" y="1006" fill="#092243" font-family="Arial, Helvetica, sans-serif" font-size="27" font-weight="700">Meeting ID</text>
  <text x="132" y="1080" fill="#113F7A" font-family="Arial, Helvetica, sans-serif" font-size="47" font-weight="800">777 940 7788</text>

  <rect x="570" y="946" width="418" height="180" rx="20" fill="#F7F3EC" stroke="#E7D9C4" stroke-width="3"/>
  <text x="604" y="1006" fill="#092243" font-family="Arial, Helvetica, sans-serif" font-size="27" font-weight="700">Passcode</text>
  <text x="604" y="1080" fill="#113F7A" font-family="Arial, Helvetica, sans-serif" font-size="52" font-weight="800">NYM2026</text>

  <rect x="98" y="1180" width="890" height="112" rx="20" fill="#EEF6FF" stroke="#C9DEF6" stroke-width="3"/>
  <text x="132" y="1230" fill="#092243" font-family="Arial, Helvetica, sans-serif" font-size="26" font-weight="700">Meeting chat link</text>
  <text x="132" y="1274" fill="#113F7A" font-family="Arial, Helvetica, sans-serif" font-size="28" font-weight="700">us05web.zoom.us/launch/jc/88302413887</text>

  <text x="98" y="1352" fill="#52627A" font-family="Arial, Helvetica, sans-serif" font-size="22" font-weight="500">Supported by the Nepalese Association of Michigan (NeAM)</text>
  <text x="98" y="1388" fill="#52627A" font-family="Arial, Helvetica, sans-serif" font-size="20" font-weight="500">Hosted by Ashesh Dhakal</text>
</svg>
